<svg xmlns="http://www.w3.org/2000/svg" width="114.716" height="114.996" viewBox="0 0 114.716 114.996">
  <g id="Group_4" data-name="Group 4" transform="translate(-911.567 39.546) rotate(-160)">
    <g id="Group_1" data-name="Group 1" transform="translate(-972.118 259.239)">
      <path id="Path_1" data-name="Path 1" d="M-903.255,277.074l-4.269-5.615-2.068.5,1.5,6.277-3.993.957-3.974-16.595,6.252-1.5c3.824-.916,6.7.253,7.527,3.716a4.591,4.591,0,0,1-1.591,5.035l4.989,6.179Zm-5.353-8.865c1.611-.386,2.714-.879,2.339-2.442-.38-1.587-1.609-1.624-3.22-1.238l-1.78.426.88,3.679Z" transform="translate(952.538 -259.783)" fill="#d6cfcf"/>
      <path id="Path_2" data-name="Path 2" d="M-882.565,276.722c-3.848-.511-6.358-3.215-5.686-8.264l.352-2.648c.678-5.1,3.8-7,7.647-6.492s6.365,3.166,5.686,8.264l-.352,2.647C-875.588,275.28-878.717,277.233-882.565,276.722ZM-884.182,269c-.368,2.77.376,4.117,2.067,4.341s2.761-.88,3.129-3.65l.351-2.647c.368-2.77-.376-4.116-2.067-4.34s-2.761.88-3.129,3.65Z" transform="translate(942.865 -259.239)" fill="#d6cfcf"/>
      <path id="Path_3" data-name="Path 3" d="M-853.158,274.528a2.318,2.318,0,0,0-1.1-2.976c-1.5-.807-2.9-.149-4.216,2.313l-1.263,2.354c-1.263,2.354-1.121,3.973.405,4.792a2.18,2.18,0,0,0,3.085-.73l3.444,1.847c-2.335,3.1-4.961,3.6-8.143,1.891-3.422-1.836-4.817-5.252-2.408-9.74l1.263-2.354c2.432-4.534,6.026-5.216,9.448-3.38,2.986,1.6,4.18,4.292,2.928,7.83Z" transform="translate(934.553 -262.158)" fill="#d6cfcf"/>
      <path id="Path_4" data-name="Path 4" d="M-843.265,298.924l2.549-7.074-2.5.2-3.425,2.96-2.684-3.106,12.911-11.159,2.684,3.105-4.79,4.14,7.668-.809,3.122,3.612-8.52.694-3.81,11.139Z" transform="translate(929.234 -266.751)" fill="#d6cfcf"/>
      <path id="Path_5" data-name="Path 5" d="M-825.085,324.118l-5.64,1.176-.837-4.019,16.7-3.481,1.312,6.294c.8,3.849-.377,6.671-4.1,7.448-3.7.772-6.151-1.269-6.958-5.143Zm3.664.853c.439,2.106,1.26,2.9,2.93,2.547,1.356-.283,1.891-1.354,1.452-3.46l-.323-1.549-4.382.913Z" transform="translate(923.029 -279.69)" fill="#d6cfcf"/>
      <path id="Path_6" data-name="Path 6" d="M-828.5,338.767l16.215,7.963-.48,3.927-17.656,3.819.532-4.344,3.007-.553.64-5.229-2.789-1.238Zm5.515,7.052-.381,3.116,5.2-.933Z" transform="translate(922.631 -287.014)" fill="#d6cfcf"/>
      <path id="Path_7" data-name="Path 7" d="M-828.691,368.891l-5.125-2.636,1.877-3.65,15.176,7.8-2.942,5.718c-1.8,3.5-4.491,4.949-7.878,3.207-3.366-1.731-3.982-4.857-2.172-8.376Zm2.31,2.969c-.984,1.913-.842,3.044.675,3.824,1.232.633,2.322.137,3.306-1.777l.724-1.408-3.981-2.047Z" transform="translate(923.815 -295.34)" fill="#d6cfcf"/>
      <path id="Path_8" data-name="Path 8" d="M-840.828,400.235l-2.379-2.448,4.79-4.653-2.171-2.235-4.257,4.135-2.378-2.447,4.257-4.136-2.585-2.661-4.789,4.653L-852.719,388l7.734-7.513,11.89,12.239Z" transform="translate(930.418 -301.584)" fill="#d6cfcf"/>
      <path id="Path_9" data-name="Path 9" d="M-868.541,396.637l5.294,4.658,1.929-.895-2.715-5.854,3.724-1.726,7.176,15.477-5.831,2.7c-3.566,1.654-6.614,1.078-8.112-2.152a4.592,4.592,0,0,1,.564-5.25l-6.112-5.069Zm7,7.629c-1.5.7-2.484,1.4-1.809,2.855.686,1.48,1.9,1.273,3.4.576l1.659-.769-1.591-3.432Z" transform="translate(937.369 -305.893)" fill="#d6cfcf"/>
      <path id="Path_10" data-name="Path 10" d="M-898.582,414.15a3.025,3.025,0,0,0,2.938,1.747c1.357.087,1.988-.493,2.043-1.357.065-1.013-.788-1.636-2.9-2.389-3.635-1.3-4.954-2.768-4.769-5.68.2-3.085,2.4-4.952,6.271-4.707,3.109.2,5.159,1.1,6.634,3.221l-3.2,1.954a3.951,3.951,0,0,0-3.309-1.746c-1.58-.1-2.239.527-2.29,1.341-.063.987.6,1.525,3.063,2.5,3.384,1.33,4.765,3,4.591,5.743-.178,2.813-2.162,4.794-6.309,4.531-2.715-.172-4.854-1.225-5.944-3.177Z" transform="translate(947.544 -309.009)" fill="#d6cfcf"/>
      <path id="Path_11" data-name="Path 11" d="M-923.436,406.656a2.319,2.319,0,0,0,1.346,2.871c1.566.675,2.9-.1,4-2.663l1.058-2.452c1.059-2.452.78-4.054-.808-4.74a2.183,2.183,0,0,0-3.014.99l-3.587-1.548c2.064-3.284,4.638-4.005,7.953-2.574,3.565,1.538,5.244,4.823,3.226,9.5l-1.059,2.453c-2.039,4.723-5.561,5.707-9.125,4.168-3.111-1.342-4.529-3.921-3.581-7.551Z" transform="translate(956.47 -306.948)" fill="#d6cfcf"/>
      <path id="Path_12" data-name="Path 12" d="M-931.709,387.593l3.213,2.554-10.616,13.358-3.214-2.554Z" transform="translate(961.713 -304.067)" fill="#d6cfcf"/>
      <path id="Path_13" data-name="Path 13" d="M-954.3,381.723a3.023,3.023,0,0,0,.565,3.37c.812,1.091,1.663,1.2,2.356.682.813-.605.738-1.659-.049-3.754-1.361-3.61-1.092-5.567,1.25-7.308,2.479-1.845,5.325-1.374,7.643,1.74,1.859,2.5,2.5,4.644,1.831,7.143l-3.556-1.177a3.946,3.946,0,0,0-.807-3.652c-.944-1.27-1.849-1.367-2.5-.88-.793.59-.776,1.441.074,3.951,1.174,3.442.789,5.576-1.413,7.215-2.262,1.682-5.055,1.449-7.534-1.885-1.623-2.181-2.2-4.493-1.419-6.587Z" transform="translate(967.258 -299.191)" fill="#d6cfcf"/>
      <path id="Path_14" data-name="Path 14" d="M-964.823,359.155a3.023,3.023,0,0,0-.578,3.367c.405,1.3,1.173,1.68,2,1.422.967-.3,1.244-1.322,1.192-3.56-.092-3.857.808-5.616,3.593-6.487,2.95-.923,5.481.461,6.641,4.167.929,2.973.826,5.208-.629,7.347l-2.969-2.284a3.951,3.951,0,0,0,.445-3.714c-.472-1.51-1.294-1.9-2.073-1.657-.944.295-1.209,1.1-1.234,3.754-.029,3.636-1.1,5.524-3.715,6.344-2.691.841-5.25-.3-6.491-4.266-.812-2.6-.6-4.97.837-6.686Z" transform="translate(971.068 -292.202)" fill="#d6cfcf"/>
      <path id="Path_15" data-name="Path 15" d="M-954.57,336.846c-.2,3.877-2.7,6.594-7.786,6.327l-2.667-.139c-5.137-.27-7.285-3.23-7.082-7.107s2.649-6.6,7.786-6.328l2.667.14C-956.565,330-954.367,332.968-954.57,336.846Zm-7.572,2.228c2.791.146,4.074-.7,4.164-2.408s-1.1-2.682-3.889-2.827l-2.667-.141c-2.79-.146-4.074.7-4.162,2.406s1.1,2.683,3.888,2.829Z" transform="translate(972.118 -283.806)" fill="#d6cfcf"/>
      <path id="Path_16" data-name="Path 16" d="M-949.068,311.174l-7.053-.036-.867,1.942,5.893,2.633-1.675,3.748L-968.35,312.5l2.624-5.87c1.6-3.59,4.28-5.157,7.532-3.7a4.592,4.592,0,0,1,3.022,4.33l7.94-.189Zm-10.29-1.158c.675-1.512.956-2.687-.511-3.344-1.49-.665-2.269.288-2.945,1.8l-.746,1.67,3.453,1.544Z" transform="translate(970.802 -274.308)" fill="#d6cfcf"/>
      <path id="Path_17" data-name="Path 17" d="M-943.4,284.127a3.026,3.026,0,0,0-3.238,1.1c-.947.976-.918,1.833-.3,2.435.727.707,1.755.465,3.7-.647,3.348-1.919,5.324-1.965,7.415.069,2.217,2.154,2.205,5.041-.5,7.824-2.172,2.235-4.186,3.208-6.76,2.947l.594-3.7a3.953,3.953,0,0,0,3.478-1.379c1.1-1.135,1.055-2.044.47-2.613-.71-.69-1.547-.537-3.891.7-3.211,1.708-5.38,1.669-7.348-.245-2.022-1.965-2.236-4.76.659-7.739,1.9-1.951,4.086-2.892,6.278-2.451Z" transform="translate(964.847 -266.602)" fill="#d6cfcf"/>
    </g>
  </g>
</svg>
